<svg xmlns="http://www.w3.org/2000/svg" width="45.326" height="45.306" viewBox="0 0 45.326 45.306">
  <g id="Globe_1_" transform="translate(0 0)">
    <path id="Globe" d="M438.258,6.363v45.3h-9.389a29.773,29.773,0,0,0-34.131-39.436l-1.8.444V6.363Zm-32.848,7.1a13.26,13.26,0,0,0-8.42-1.039l1,.115.142-.071a13.971,13.971,0,0,1,3.932.22,15.852,15.852,0,0,0-1.58.536,5.02,5.02,0,0,1,.865.434,19.721,19.721,0,0,1,2.149-.587,10.447,10.447,0,0,1,2.461,1.262,28.2,28.2,0,0,0-3.117.5,3.558,3.558,0,0,1,.608.709,27.8,27.8,0,0,1,3.574-.382A6.23,6.23,0,0,1,408.482,17a27.927,27.927,0,0,0-4.191.051,4.722,4.722,0,0,1,.331.988,31.981,31.981,0,0,1,4.47.176,7.755,7.755,0,0,1,.546,2.33,35.547,35.547,0,0,0-4.77-.627,9.97,9.97,0,0,1-.045,1.318,33.448,33.448,0,0,1,4.9.887,11.787,11.787,0,0,1-.35,2.577,40.236,40.236,0,0,0-4.955-1.386,11.5,11.5,0,0,1-.695,2.037,38.666,38.666,0,0,1,4.869,2.056,14.583,14.583,0,0,1-.98,2.2,50.3,50.3,0,0,0-4.792-2.431,23.254,23.254,0,0,1-1.68,2.607c1.562.95,3.036,1.978,4.5,3.082-.439.644-1.071,1.416-1.451,1.876-1.406-1.169-4.29-3.463-4.29-3.463a15.778,15.778,0,0,1-2.643,2.612c1.184,1.211,2.732,2.942,3.7,4.14a9.715,9.715,0,0,1-1.575,1.343c-1.174-1.442-2.587-3.265-3.409-4.409a16.947,16.947,0,0,1-3.039,2.005v1.7l1.874,3.748a8.268,8.268,0,0,1-1.318.674l-.557-1.093v1.97c7.226-3.209,14.581-10.285,16.719-17.969.783-2.656.919-6.074-.361-8.549a8.959,8.959,0,0,0-3.881-3.973m-1.078-1.117c.315.1.615.243.917.374l.17-.029a13.811,13.811,0,0,1,4.341,1.492c-.718.006-1.461,0-2.178.055a11.977,11.977,0,0,1,.876.869c.97-.019,1.911,0,2.836.063a8.639,8.639,0,0,1,2.374,2.508,30.5,30.5,0,0,0-3.866-.572c.171.392.345.8.49,1.214a43.318,43.318,0,0,1,4.324.839,10.358,10.358,0,0,1,.971,3.052A35.287,35.287,0,0,0,410.8,20.8c.041.528.045,1.071.048,1.606a36.382,36.382,0,0,1,4.93,1.776,12.478,12.478,0,0,1-.351,3.1,39.915,39.915,0,0,0-4.945-2.17,22.564,22.564,0,0,1-.829,2.786,52.8,52.8,0,0,1,4.8,2.7,13.734,13.734,0,0,1-1.211,2.539c-1.519-1.039-3.039-2.048-4.624-2.927a18.822,18.822,0,0,1-2.031,3.316c1.412,1.111,2.857,2.27,4.218,3.5a16.562,16.562,0,0,1-1.722,2.166c-.993-1.046-2.652-2.537-4.032-3.7a27.6,27.6,0,0,1-3.292,3.454c.887.932,3.52,4.1,3.52,4.1a15.482,15.482,0,0,1-1.856,1.549s-2.688-3.448-3.35-4.279a28.466,28.466,0,0,1-4.722,3.132c.737,1.256,2.567,4.66,2.567,4.66a8.408,8.408,0,0,1-1.452.739c-.864-1.434-1.9-3.512-2.458-4.7a8.157,8.157,0,0,1-1.073.484v6.2a35.83,35.83,0,0,0,15.139-9.7c3.983-4.317,7.134-8.977,8.069-14.546a11.742,11.742,0,0,0-4.249-11.448c-2.138-1.831-4.787-2.469-7.56-2.794M402.466,15.3c-2.453-2.479-6.215-2.687-9.534-1.906,0,0,0,.3,0,.3a12.034,12.034,0,0,1,2.416-.286,13.166,13.166,0,0,0-1.522,1.1,3.505,3.505,0,0,1,.6.192,21.207,21.207,0,0,1,2.076-1.327,7.569,7.569,0,0,1,2.455.416,16.393,16.393,0,0,0-3.264,1.571,1.948,1.948,0,0,1,.444.349,25.113,25.113,0,0,1,3.787-1.6,5.281,5.281,0,0,1,1.572,1,30.871,30.871,0,0,0-4.611,1.406,3.126,3.126,0,0,1,.383.6,39.432,39.432,0,0,1,4.946-1.342,4.585,4.585,0,0,1,.87,1.351,35.608,35.608,0,0,0-5.438.929,3.84,3.84,0,0,1,.185.7,38.556,38.556,0,0,1,5.627-.67,6.005,6.005,0,0,1,.269,1.735,37.917,37.917,0,0,0-5.807.136c0,.225-.032.676-.061.955a40.615,40.615,0,0,1,5.81.2,14.018,14.018,0,0,1-.394,1.937,35.2,35.2,0,0,0-5.714-.794,5.677,5.677,0,0,1-.418,1.246,34.453,34.453,0,0,1,5.463,1.485,16.632,16.632,0,0,1-.842,1.684,40.6,40.6,0,0,0-5.242-1.943,10.075,10.075,0,0,1-1.111,1.743c1.113.543,3.247,1.747,4.711,2.693a14.887,14.887,0,0,1-1.156,1.385c-1.417-1.1-2.823-2.142-4.363-3.121a15.884,15.884,0,0,1-1.677,1.657v.178l3.537,3.765a14.082,14.082,0,0,1-1.212.991l-2.325-2.973V36.3a26.4,26.4,0,0,0,9.27-9.231c1.667-2.934,2.93-6.906,1.314-10.279a6.077,6.077,0,0,0-1.05-1.485m10.566.037,1.044.128a10.875,10.875,0,0,1,2.864,2.217,6.792,6.792,0,0,1,.881,1.077c-.861-.244-1.7-.54-2.586-.733a8.942,8.942,0,0,1,.737,1.475c.994.286,1.98.629,2.945.972a12.3,12.3,0,0,1,1.286,3.769c-1.113-.557-2.23-1.1-3.376-1.55a11.533,11.533,0,0,1,.089,1.975,31.412,31.412,0,0,1,3.542,1.907,15.062,15.062,0,0,1-.33,3.6,30.965,30.965,0,0,0-3.626-2.276,16.186,16.186,0,0,1-1.039,3.309,38.846,38.846,0,0,1,3.609,2.681,21.43,21.43,0,0,1-1.3,2.837c-1.162-1-2.345-1.954-3.575-2.877a21,21,0,0,1-2.523,3.917c1.182,1.09,2.309,2.156,3.438,3.325a18.272,18.272,0,0,1-1.895,2.343c-1.075-1.153-2.181-2.336-3.3-3.441a36.15,36.15,0,0,1-3.87,3.924,36.028,36.028,0,0,1,3.007,3.7c-.687.588-1.327,1.142-2.013,1.645l-2.9-3.749a40.837,40.837,0,0,1-5.6,3.592l1.524,2.543h4.725c7.22-4.93,13.742-12.251,15.752-20.424a14.924,14.924,0,0,0-3.383-13.841,11.2,11.2,0,0,0-5.321-3.091,8.161,8.161,0,0,1,1.21,1.038m-20.1-.416V15.8l.489-.339a4.036,4.036,0,0,1,1.183.5c-.564.331-1.144.657-1.665,1.014v.547c.7-.425,1.515-.921,2.163-1.25a2.689,2.689,0,0,1,.679.664c-.936.373-2.241,1.01-2.849,1.331v.565a23.933,23.933,0,0,1,3.28-1.353,2.84,2.84,0,0,1,.333.849,22.683,22.683,0,0,0-3.607,1.141v.516a25.35,25.35,0,0,1,3.753-.98,5.2,5.2,0,0,1,.087,1.057,34.154,34.154,0,0,0-3.837.581v.589a30.237,30.237,0,0,1,3.775-.256,5.991,5.991,0,0,1-.32,1.189,34.1,34.1,0,0,0-3.458-.125c-.007,0-.007.786-.007.789a23.962,23.962,0,0,1,3.028.475,7.3,7.3,0,0,1-.544,1.06,17.391,17.391,0,0,0-2.485-.68v1.549a15.48,15.48,0,0,1,1.44.729,5.623,5.623,0,0,1-.7.823c-.325-.216-.74-.458-.74-.458v1.981a20.28,20.28,0,0,0,2.259-2.534c1.581-2.28,2.827-5.236,1.692-8.087a5.067,5.067,0,0,0-3.949-2.761m26.472,4.364a17.242,17.242,0,0,1,.906,1.721l1.26.581a15.767,15.767,0,0,1,2,4.66c-.7-.438-1.4-.894-2.111-1.279a17.65,17.65,0,0,1,.156,2.237,26.08,26.08,0,0,1,2.4,1.831,19.105,19.105,0,0,1-.24,4.076,21.013,21.013,0,0,0-2.593-2.154,18.514,18.514,0,0,1-1.148,3.754,24.618,24.618,0,0,1,2.7,2.555A19.507,19.507,0,0,1,421.4,40.31c-.858-.923-1.793-1.882-2.728-2.7a37.781,37.781,0,0,1-2.761,4.312c.934.957,1.8,1.959,2.654,2.964a27.16,27.16,0,0,1-2.014,2.445c-.866-1-1.678-2.024-2.583-3a33.852,33.852,0,0,1-4.155,4.211c.967,1.174,2.432,3.122,2.432,3.122h.826a48.239,48.239,0,0,0,4.349-4.439c3.3-4.043,5.918-8.362,6.83-13.38a16.237,16.237,0,0,0-3.873-14.192l-.966-.362Zm3.3,2.635-.015.039a16.92,16.92,0,0,1,3.332,6.066l-.012.024-1.165-.882a20.1,20.1,0,0,1,.3,2.676,9.9,9.9,0,0,1,1.618,1.526,21.217,21.217,0,0,1-.182,4.66,17.353,17.353,0,0,0-1.806-2.016,19.717,19.717,0,0,1-1.1,4.032,19.565,19.565,0,0,1,1.909,2.471,18.246,18.246,0,0,1-1.343,3.192c-.658-.849-1.124-1.536-1.982-2.546a37.273,37.273,0,0,1-2.957,4.637c.75.884,1.44,1.806,2.093,2.739a29.265,29.265,0,0,1-2.008,2.535c-.682-.939-1.41-1.872-2.12-2.8a32.284,32.284,0,0,1-3.195,3.385h5.562a30.805,30.805,0,0,0,7.241-13.955c1.094-5.239.229-10.784-3.147-14.734a6.589,6.589,0,0,0-1.022-1.049m4.747,7.284a24.861,24.861,0,0,1,.436,3.145,11.362,11.362,0,0,1,.907,1.21,19.9,19.9,0,0,1-.355,4.658l-.844-1.04a25.379,25.379,0,0,1-1.143,4.293l.934,1.622a23.182,23.182,0,0,1-1.326,3.388c-.35-.567-.676-1.192-1.036-1.687a39.245,39.245,0,0,1-2.938,4.759l1.306,2.106h.3a29.7,29.7,0,0,0,5.476-15.687,14.321,14.321,0,0,0-1.587-6.638l-.131-.128Zm2.5,8.4c-.107.788-.161,1.584-.3,2.33L429.4,39.6a24.294,24.294,0,0,1-1.213,4.585l.388,1.075a30.714,30.714,0,0,1-1.236,3.446,5.885,5.885,0,0,0-.56-1.147,38.537,38.537,0,0,1-2.354,4.1h2.085a35.107,35.107,0,0,0,2.681-6.929,20.427,20.427,0,0,0,.771-7.12h-.009Zm.128,5.74A63.528,63.528,0,0,1,428.2,50.5a5.119,5.119,0,0,1-.221-.479c-.312.628-.785,1.635-.785,1.635h1.069a29.239,29.239,0,0,0,1.828-8.309m-33.18,6.535a35.267,35.267,0,0,1-3.973,1.526v.244h4.961Zm10.863.333c-.517.37-1.172.952-1.959,1.449h2.908s-.628-.946-.948-1.449" transform="translate(-392.932 -6.363)" fill="#005daa"/>
  </g>
</svg>
