<svg xmlns="http://www.w3.org/2000/svg" width="48" height="33.998" viewBox="0 0 48 33.998">
  <g id="surface1" transform="translate(0 0)">
    <path id="Path_221" data-name="Path 221" d="M20.254,8.035a4,4,0,0,0-3.348,1.137L16,10.078,23.422,16.5l8.285-3.289L21.438,8.379A3.941,3.941,0,0,0,20.254,8.035ZM50,10a4.009,4.009,0,0,0-1.812.434L14,24l-3.57-3.145a3.336,3.336,0,0,0-3.7-.48L6,20.742l4.281,8.723A3.983,3.983,0,0,0,15.7,31.617L29.133,26.4,28,42h1.285a4,4,0,0,0,3.762-2.645l6.07-16.836,12.332-4.793c.008,0,.016,0,.023-.008v0A4,4,0,0,0,50,10Z" transform="translate(-6 -8.002)" fill="#9e9e9e"/>
  </g>
</svg>
