<svg xmlns="http://www.w3.org/2000/svg" width="34.911" height="42.818" viewBox="0 0 34.911 42.818">
  <path id="Path_139" data-name="Path 139" d="M41.279,15.317a9.667,9.667,0,0,0-4.725,8.216,9.679,9.679,0,0,0,5.817,8.6,23.075,23.075,0,0,1-3.016,6.1c-1.733,2.638-3.654,5.3-6.577,5.3C30,43.529,29,41.772,25.8,41.772c-3.443,0-4.417,1.758-7.055,1.758-2.919,0-4.986-2.8-6.816-5.415a26.668,26.668,0,0,1-4.462-13.94,14.7,14.7,0,0,1,1.8-7.7,10.739,10.739,0,0,1,8.882-5.415c2.8-.094,5.3,1.924,7.006,1.924,1.64,0,4.7-1.924,8.168-1.924A9.526,9.526,0,0,1,41.279,15.317Zm-16.36-4.8c-.5-2.493.877-4.986,2.16-6.577A9.111,9.111,0,0,1,33.538.711a9.307,9.307,0,0,1-2.375,6.722C29.714,9.357,27.221,10.8,24.919,10.519Z" transform="translate(-7.461 -0.711)" fill="#044a48"/>
</svg>
