<svg xmlns="http://www.w3.org/2000/svg" width="84" height="84" viewBox="0 0 84 84">
  <g id="surface1" transform="translate(-8 -8)">
    <path id="Path_175" data-name="Path 175" d="M21.811,8a7.66,7.66,0,0,0-6.831,4.228L8,26.188V84.364A7.632,7.632,0,0,0,15.636,92H84.364A7.632,7.632,0,0,0,92,84.364V26.188L85.012,12.221A7.65,7.65,0,0,0,78.189,8Zm.007,7.636H78.181l5.727,11.455H16.091ZM38.545,34.727H61.455a3.818,3.818,0,1,1,0,7.636H38.545a3.818,3.818,0,0,1,0-7.636Z" transform="translate(0 0)" fill="#bdbdbd"/>
  </g>
</svg>
