<svg xmlns="http://www.w3.org/2000/svg" width="15.955" height="18.48" viewBox="0 0 15.955 18.48">
  <path id="Path_144" data-name="Path 144" d="M12.814,7.98a.839.839,0,0,0-.585,1.441l7.8,7.8-7.8,7.8A.839.839,0,1,0,13.415,26.2l8.391-8.391a.839.839,0,0,0,0-1.187L13.415,8.234A.839.839,0,0,0,12.814,7.98Zm5.874,0A.839.839,0,0,0,18.1,9.421l7.8,7.8-7.8,7.8A.839.839,0,1,0,19.288,26.2l8.391-8.391a.839.839,0,0,0,0-1.187L19.288,8.234A.839.839,0,0,0,18.687,7.98Z" transform="translate(-11.97 -7.98)" fill="#bdbdbd"/>
</svg>
