<?xml version="1.0" encoding="iso-8859-1"?>
<!-- Generator: Adobe Illustrator 16.0.0, SVG Export Plug-In . SVG Version: 6.00 Build 0)  -->
<!DOCTYPE svg PUBLIC "-//W3C//DTD SVG 1.1//EN" "http://www.w3.org/Graphics/SVG/1.1/DTD/svg11.dtd">
<svg version="1.1" id="Capa_1" xmlns="http://www.w3.org/2000/svg" xmlns:xlink="http://www.w3.org/1999/xlink" x="0px" y="0px"
	 width="608.581px" height="608.581px" viewBox="0 0 608.581 608.581" style="enable-background:new 0 0 608.581 608.581;"
	 xml:space="preserve">
<g>
	<g>
		<path d="M380.645,127.698c-5.794,0-11.03,2.17-15.132,5.637l-0.216-0.215L180.464,317.317
			c-20.946,20.941-29.534,41.372-29.644,70.538c0,22.811,8.429,43.332,23.729,57.781c15.802,14.917,37.748,22.802,63.476,22.797
			h0.54c26.78-0.12,51.839-10.657,70.538-29.644l214.468-214.416c54.319-54.325,55.744-131.748,3.39-184.107
			C500.994,14.301,466.421,0,429.609,0c-36.811,0-71.374,14.301-97.322,40.268L63.672,308.845
			c-68.481,68.482-68.481,179.914,0,248.396c33.12,33.11,77.223,51.341,124.184,51.341c46.962,0,91.068-18.23,124.202-51.346
			l278.083-279.067c0,0,6.129-6.024,6.129-16.185c0-13.019-10.557-23.576-23.576-23.576c-6.187,0-11.776,2.438-15.983,6.34
			l-0.072-0.072L278.551,523.748c-24.188,24.174-56.399,37.489-90.7,37.489s-66.507-13.315-90.686-37.489
			c-50.012-50.031-50.012-131.408,0-181.405L365.78,73.77c17.021-17.021,39.689-26.393,63.829-26.393
			c24.141,0,46.823,9.376,63.858,26.393c16.988,16.988,25.527,37.169,24.7,58.37c-0.817,20.865-10.528,41.176-28.09,58.737
			l-214.917,214.87c-9.825,9.839-22.888,15.28-36.763,15.313c-26.393,0-40.201-16.629-40.201-33.033
			c0.053-13.861,5.489-26.919,15.314-36.759l185.283-184.646l-0.211-0.21c3.467-4.103,5.638-9.338,5.638-15.133
			C404.222,138.25,393.664,127.698,380.645,127.698z"/>
	</g>
</g>
<g>
</g>
<g>
</g>
<g>
</g>
<g>
</g>
<g>
</g>
<g>
</g>
<g>
</g>
<g>
</g>
<g>
</g>
<g>
</g>
<g>
</g>
<g>
</g>
<g>
</g>
<g>
</g>
<g>
</g>
</svg>
