<svg xmlns="http://www.w3.org/2000/svg" width="295.547" height="197.044" viewBox="0 0 295.547 197.044">
  <path id="Path_228" fill="#F1F1F1" data-name="Path 228" d="M255.966,87.136c.039-1.17.157-2.223.157-3.393A78.762,78.762,0,0,0,107.16,47.985,49.031,49.031,0,0,0,40.048,86.941,59.1,59.1,0,0,0,59.117,201.978H236.43A59.075,59.075,0,0,0,255.966,87.136ZM159.686,67.6l-1.95,63.758H137.81L135.86,67.6ZM147.793,174.252c-8.15,0-13.025-4.329-13.025-11.62,0-7.409,4.875-11.777,13.025-11.777,8.111,0,12.986,4.367,12.986,11.777C160.779,169.923,155.9,174.252,147.793,174.252Z" transform="translate(0 -4.933)"/>
</svg>
