<svg id="surface1" xmlns="http://www.w3.org/2000/svg" width="25.956" height="20.394" viewBox="0 0 25.956 20.394">
  <path id="Path_207" data-name="Path 207" d="M3.854,8A1.853,1.853,0,0,0,2,9.854v.927H23.321V9.854A1.853,1.853,0,0,0,21.467,8Zm21.321,3.708v2.781h2.781v-.927A1.853,1.853,0,0,0,26.1,11.708ZM2,13.562V21.9a1.853,1.853,0,0,0,1.854,1.854H21.467A1.853,1.853,0,0,0,23.321,21.9V13.562ZM25.174,17.27v6.489a1.853,1.853,0,0,1-1.854,1.854H6.635v.927a1.853,1.853,0,0,0,1.854,1.854H26.1a1.853,1.853,0,0,0,1.854-1.854V17.27Z" transform="translate(-2 -8)" fill="#fff"/>
</svg>
