<svg id="surface1" xmlns="http://www.w3.org/2000/svg" width="24.277" height="25.38" viewBox="0 0 24.277 25.38">
  <path id="Path_170" data-name="Path 170" d="M9.655,6a.637.637,0,0,0-.606.42L8,9.22v1.194h3.31V9.22l-1.05-2.8A.637.637,0,0,0,9.655,6ZM30.622,6a.637.637,0,0,0-.606.42l-1.05,2.8v1.194h3.31V9.22l-1.05-2.8A.637.637,0,0,0,30.622,6ZM20.138,8.759s-5.517,2.759-5.517,6.069a3.917,3.917,0,0,0,1.573,3.31h-.47a2.206,2.206,0,0,0-2.207,2.207V31.38h4.414V28.07A5.4,5.4,0,0,1,20.138,24.1a5.4,5.4,0,0,1,2.207,3.972v3.31h4.414V20.345a2.206,2.206,0,0,0-2.207-2.207h-.47a3.917,3.917,0,0,0,1.573-3.31C25.656,11.517,20.138,8.759,20.138,8.759ZM8,12.621V31.38h3.31V12.621Zm20.966,0V31.38h3.31V12.621Z" transform="translate(-8 -6)" fill="#00897b"/>
</svg>
