<svg xmlns="http://www.w3.org/2000/svg" width="26.289" height="26.289" viewBox="0 0 26.289 26.289">
  <g id="surface1" transform="translate(-8 -8)">
    <path id="Path_155" data-name="Path 155" d="M34.034,18.57H32.975v-.054H21.145v5.258h7.428a7.893,7.893,0,1,1-2.2-8.518l3.717-3.717a13.13,13.13,0,1,0,4.195,9.607A13.29,13.29,0,0,0,34.034,18.57Z" fill="#ffc107"/>
    <path id="Path_156" data-name="Path 156" d="M12.613,15.027l4.318,3.167a7.871,7.871,0,0,1,12.543-2.938l3.717-3.717a13.117,13.117,0,0,0-20.578,3.489Z" transform="translate(-3.097)" fill="#ff3d00"/>
    <path id="Path_157" data-name="Path 157" d="M24.092,66.589A13.082,13.082,0,0,0,32.9,63.177l-4.068-3.443a7.867,7.867,0,0,1-12.16-3.625l-4.286,3.3A13.133,13.133,0,0,0,24.092,66.589Z" transform="translate(-2.948 -32.3)" fill="#4caf50"/>
    <path id="Path_158" data-name="Path 158" d="M60.889,40.054H59.83V40H48v5.258h7.428a7.908,7.908,0,0,1-2.685,3.661,0,0,0,0,0,0,0l4.068,3.443a12.712,12.712,0,0,0,4.332-9.731A13.29,13.29,0,0,0,60.889,40.054Z" transform="translate(-26.855 -21.484)" fill="#1976d2"/>
  </g>
</svg>
