<svg xmlns="http://www.w3.org/2000/svg" width="27.391" height="27.39" viewBox="0 0 27.391 27.39">
  <g id="surface1" opacity="0.7">
    <path id="Path_167" data-name="Path 167" d="M19.7,6a13.7,13.7,0,1,0,13.7,13.7A13.7,13.7,0,0,0,19.7,6Zm0,22.255a1.712,1.712,0,1,1,1.712-1.712A1.712,1.712,0,0,1,19.7,28.255Zm2.361-7.989c-.756.7-1.219,1.155-1.219,1.712H18.554a4.671,4.671,0,0,1,1.953-3.39c.912-.84,1.471-1.4,1.471-2.316a2.283,2.283,0,1,0-4.565,0H15.13a4.565,4.565,0,1,1,9.13,0A5.308,5.308,0,0,1,22.056,20.266Z" transform="translate(-6 -6)" fill="#fff"/>
  </g>
</svg>
