<svg id="surface1" xmlns="http://www.w3.org/2000/svg" width="47.381" height="40.091" viewBox="0 0 47.381 40.091">
  <path id="Path_146" data-name="Path 146" d="M31.833,8a5.964,5.964,0,0,0-5.965,5.965c0,5.716,6.6,11.169,9.72,13.618a1.108,1.108,0,0,0,.1.082c.007,0,.011.011.018.014a1.822,1.822,0,0,0,2.192,0c.007-.007.018-.014.025-.021s.007,0,.011-.007.018-.014.025-.021c3.1-2.431,9.777-7.919,9.777-13.664A5.964,5.964,0,0,0,41.771,8,6.5,6.5,0,0,0,36.8,10.734,6.5,6.5,0,0,0,31.833,8Zm-16.9,18.223a5.468,5.468,0,0,0-2.036.4L4,29.868V44.447L11.692,41.1a3.668,3.668,0,0,1,2.851-.032l16.519,6.748h.007a2.7,2.7,0,0,0,2.524-.089H33.6l16.376-9.1,0,0a2.729,2.729,0,0,0-2.488-4.855v0L34.98,38.98H32.246a2.733,2.733,0,0,0,.847-5.332v0L17.251,26.736H17.23A5.5,5.5,0,0,0,14.934,26.223Z" transform="translate(-4 -8)" fill="#00897b"/>
</svg>
