<svg id="surface1" xmlns="http://www.w3.org/2000/svg" width="41.917" height="48.134" viewBox="0 0 41.917 48.134">
  <path id="Path_152" data-name="Path 152" d="M16.276,6a.466.466,0,0,0-.454.327l-1.1,3.262-3.442.037A.483.483,0,0,0,11,10.5l2.759,2.056-1.026,3.282a.482.482,0,0,0,.74.536l2.808-1.987,2.808,1.987a.481.481,0,0,0,.74-.536L18.8,12.552,21.561,10.5a.483.483,0,0,0-.286-.871l-3.442-.037-1.1-3.262A.471.471,0,0,0,16.276,6ZM30.929,6a.471.471,0,0,0-.458.327l-1.1,3.262-3.442.037a.483.483,0,0,0-.282.871l2.763,2.056-1.026,3.282a.479.479,0,0,0,.736.536l2.808-1.987,2.808,1.987a.481.481,0,0,0,.74-.536l-1.026-3.282L36.21,10.5a.483.483,0,0,0-.282-.871l-3.442-.037-1.1-3.262A.471.471,0,0,0,30.929,6Zm14.65,0a.471.471,0,0,0-.458.327l-1.1,3.262-3.442.037a.483.483,0,0,0-.282.871l2.763,2.056-1.026,3.282a.479.479,0,0,0,.736.536l2.808-1.987,2.808,1.987a.481.481,0,0,0,.74-.536L48.1,12.552,50.86,10.5a.483.483,0,0,0-.282-.871l-3.442-.037-1.1-3.262A.471.471,0,0,0,45.579,6ZM12.094,20.65a2.093,2.093,0,1,0,0,4.186v29.3H24.651V43.67H37.208V54.134H49.764v-29.3a2.093,2.093,0,1,0,0-4.186Zm4.186,6.278h4.186v4.186H16.28Zm8.371,0h4.186v4.186H24.651Zm8.371,0h4.186v4.186H33.022Zm8.371,0h4.186v4.186H41.393ZM16.28,35.3h4.186v4.186H16.28Zm8.371,0h4.186v4.186H24.651Zm8.371,0h4.186v4.186H33.022Zm8.371,0h4.186v4.186H41.393ZM16.28,43.67h4.186v4.186H16.28Zm25.114,0h4.186v4.186H41.393Z" transform="translate(-9.971 -6)" fill="#00897b"/>
</svg>
