<svg xmlns="http://www.w3.org/2000/svg" width="40.059" height="46" viewBox="0 0 40.059 46">
  <path id="Path_129" data-name="Path 129" d="M16,6a.445.445,0,0,0-.434.313L14.512,9.43l-3.289.035a.462.462,0,0,0-.27.832l2.637,1.965-.98,3.137a.46.46,0,0,0,.707.512L16,14.012l2.684,1.9a.46.46,0,0,0,.707-.512l-.98-3.137L21.047,10.3a.462.462,0,0,0-.274-.832L17.484,9.43,16.434,6.313A.45.45,0,0,0,16,6ZM30,6a.45.45,0,0,0-.437.313L28.512,9.43l-3.289.035a.462.462,0,0,0-.27.832l2.641,1.965-.98,3.137a.458.458,0,0,0,.7.512L30,14.012l2.684,1.9a.46.46,0,0,0,.707-.512l-.98-3.137L35.047,10.3a.462.462,0,0,0-.27-.832L31.488,9.43,30.438,6.313A.45.45,0,0,0,30,6ZM44,6a.45.45,0,0,0-.437.313L42.512,9.43l-3.289.035a.462.462,0,0,0-.27.832l2.641,1.965-.98,3.137a.458.458,0,0,0,.7.512L44,14.012l2.684,1.9a.46.46,0,0,0,.707-.512l-.98-3.137L49.047,10.3a.462.462,0,0,0-.27-.832L45.488,9.43,44.438,6.313A.45.45,0,0,0,44,6ZM12,20a2,2,0,1,0,0,4V52H24V42H36V52H48V24a2,2,0,1,0,0-4Zm4,6h4v4H16Zm8,0h4v4H24Zm8,0h4v4H32Zm8,0h4v4H40ZM16,34h4v4H16Zm8,0h4v4H24Zm8,0h4v4H32Zm8,0h4v4H40ZM16,42h4v4H16Zm24,0h4v4H40Z" transform="translate(-9.971 -6)" fill="#fff"/>
</svg>
