<svg id="surface1" xmlns="http://www.w3.org/2000/svg" width="36.844" height="47.897" viewBox="0 0 36.844 47.897">
  <path id="Path_148" data-name="Path 148" d="M13.684,4A3.682,3.682,0,0,0,10,7.684V48.213A3.682,3.682,0,0,0,13.684,51.9H43.16a3.682,3.682,0,0,0,3.684-3.684V7.684A3.682,3.682,0,0,0,43.16,4ZM28.422,9.527a12.9,12.9,0,1,1-12.9,12.9A12.9,12.9,0,0,1,28.422,9.527Zm-2.511,3.684s-6.7,2.511-6.7,9.211c0,8.373,9.211,9.211,9.211,9.211l-2.54-2.479.029-3.382L23.4,23.26H20.884V21.587l4.188-2.515V17.4h1.673l.838.838,1.673-.838V13.211H27.584v2.511H25.911Zm8.2,2-1.5.507v.838h-.838l-.838.838v1.677l1.677-.838,2.511.838-.838,1.673-1.673-.838H30.934L29.26,21.587V23.26l1.673,1.673H32.61l.838,1.677-2.515,5.023s6.7-2.511,6.7-9.211C37.637,18.238,34.107,15.215,34.107,15.215ZM21.053,40.844H35.791a1.842,1.842,0,0,1,0,3.684H21.053a1.842,1.842,0,1,1,0-3.684Z" transform="translate(-10 -4)" fill="#00897b"/>
</svg>
