<svg id="kaaba" xmlns="http://www.w3.org/2000/svg" width="47.688" height="41.914" viewBox="0 0 47.688 41.914">
  <path id="Path_130" data-name="Path 130" d="M73.007,122.794V120H31v2.794h8.383v2.794H31v16.766h6.986V128.383H51.957v13.971h21.05V125.589H67.325v-2.794Zm-25.241,2.794H42.177v-2.794h5.589Zm8.383,0H50.56v-2.794h5.589Zm8.383,0H58.943v-2.794h5.589Zm0,0" transform="translate(-28.113 -108.823)" fill="#00897b"/>
  <path id="Path_131" data-name="Path 131" d="M31.148.149A.7.7,0,0,1,31.562,0H72.5a.616.616,0,0,1,.38.134.659.659,0,0,1,.125.392V8.383H31V.569A.722.722,0,0,1,31.148.149Z" transform="translate(-28.113)" fill="#00897b"/>
  <path id="Path_132" data-name="Path 132" d="M136,240h8.383v19.56H136Zm0,0" transform="translate(-123.333 -217.646)" fill="#00897b"/>
  <path id="Path_133" data-name="Path 133" d="M279.844,392.794H277.05V390H256v5.589h23.844Zm0,0" transform="translate(-232.156 -353.675)" fill="#00897b"/>
  <path id="Path_134" data-name="Path 134" d="M0,395.589H9.873V390H2.887v2.794H0Zm0,0" transform="translate(0 -353.675)" fill="#00897b"/>
</svg>
