<svg id="kaaba" xmlns="http://www.w3.org/2000/svg" width="52.338" height="46" viewBox="0 0 52.338 46">
  <path id="Path_130" data-name="Path 130" d="M77.1,123.067V120H31v3.067h9.2v3.067H31v18.4h7.667V129.2H54v15.333H77.1v-18.4H70.867v-3.067Zm-27.7,3.067H43.267v-3.067H49.4Zm9.2,0H52.467v-3.067H58.6Zm9.2,0H61.667v-3.067H67.8Zm0,0" transform="translate(-27.831 -107.733)" fill="#fff"/>
  <path id="Path_131" data-name="Path 131" d="M31.162.164A.766.766,0,0,1,31.617,0H76.549a.677.677,0,0,1,.417.147A.723.723,0,0,1,77.1.578V9.2H31V.625A.792.792,0,0,1,31.162.164Z" transform="translate(-27.831)" fill="#fff"/>
  <path id="Path_132" data-name="Path 132" d="M136,240h9.2v21.467H136Zm0,0" transform="translate(-122.098 -215.467)" fill="#fff"/>
  <path id="Path_133" data-name="Path 133" d="M282.169,393.067H279.1V390H256v6.133h26.169Zm0,0" transform="translate(-229.831 -350.133)" fill="#fff"/>
  <path id="Path_134" data-name="Path 134" d="M0,396.133H10.836V390H3.169v3.067H0Zm0,0" transform="translate(0 -350.133)" fill="#fff"/>
</svg>
