<svg xmlns="http://www.w3.org/2000/svg" width="101.483" height="33.841" viewBox="0 0 101.483 33.841">
  <g id="Mada_Logo" transform="translate(0)">
    <rect id="Rectangle_263" data-name="Rectangle 263" width="42.928" height="14.301" transform="translate(0 19.514)" fill="#84b740"/>
    <rect id="Rectangle_264" data-name="Rectangle 264" width="42.928" height="14.314" fill="#259bd6"/>
    <path id="Path_211" data-name="Path 211" d="M623.254,146.7l-.191.038a6.261,6.261,0,0,1-1.389.178c-1.122,0-2.447-.574-2.447-3.276,0-1.389.229-3.237,2.32-3.237h.013a6.279,6.279,0,0,1,1.529.293l.166.051V146.7Zm.344-13.472-.344.064v5l-.306-.089-.089-.025a7.035,7.035,0,0,0-1.9-.331c-4.181,0-5.06,3.161-5.06,5.812,0,3.633,2.039,5.723,5.6,5.723a11.342,11.342,0,0,0,3.735-.523,1.65,1.65,0,0,0,1.4-1.81V132.7c-.994.178-2.027.357-3.034.523" transform="translate(-537.398 -115.786)" fill="#27292d"/>
    <path id="Path_212" data-name="Path 212" d="M721.8,181.511l-.179.051-.637.166a6.643,6.643,0,0,1-1.542.242c-.981,0-1.568-.484-1.568-1.313,0-.535.242-1.44,1.848-1.44H721.8Zm-1.466-9.011a14.105,14.105,0,0,0-4.257.739l-1.071.319.357,2.422,1.045-.344a12.29,12.29,0,0,1,3.48-.586c.459,0,1.861,0,1.861,1.517v.663H719.8c-3.556,0-5.2,1.134-5.2,3.569,0,2.078,1.517,3.327,4.066,3.327a13.145,13.145,0,0,0,2.83-.382l.051-.013.051.013.319.051c.994.178,2.027.357,3.034.548v-7.953c0-2.575-1.555-3.888-4.614-3.888" transform="translate(-623.517 -150.513)" fill="#27292d"/>
    <path id="Path_213" data-name="Path 213" d="M527.5,181.511l-.178.051-.637.166a6.545,6.545,0,0,1-1.542.242c-.981,0-1.568-.484-1.568-1.313,0-.535.242-1.44,1.835-1.44h2.078l.013,2.294Zm-1.453-9.011a14.041,14.041,0,0,0-4.257.739l-1.071.319.357,2.422,1.045-.344a12.288,12.288,0,0,1,3.48-.586c.459,0,1.861,0,1.861,1.517v.663h-1.95c-3.556,0-5.213,1.134-5.213,3.569,0,2.078,1.517,3.327,4.079,3.327a13.144,13.144,0,0,0,2.83-.382l.051-.013.051.013.306.051c1.007.178,2.027.357,3.034.561V176.4c.013-2.6-1.542-3.9-4.6-3.9" transform="translate(-453.983 -150.513)" fill="#27292d"/>
    <path id="Path_214" data-name="Path 214" d="M389.656,172.613a8.6,8.6,0,0,0-3.454.765l-.127.064-.115-.089a5.229,5.229,0,0,0-3.1-.752,12.671,12.671,0,0,0-3.658.548c-1.083.331-1.5.854-1.5,1.835v9.088h3.39v-8.4l.166-.051a4.315,4.315,0,0,1,1.491-.268,1.341,1.341,0,0,1,1.479,1.542v7.189h3.339v-7.329a2.468,2.468,0,0,0-.1-.739l-.115-.217.229-.1a4.02,4.02,0,0,1,1.657-.344,1.35,1.35,0,0,1,1.479,1.542v7.189h3.327v-7.52c0-2.664-1.428-3.951-4.385-3.951" transform="translate(-329.559 -150.6)" fill="#27292d"/>
    <path id="Path_215" data-name="Path 215" d="M602.645,9.33a11.565,11.565,0,0,1-1.976-.178l-.191-.038V4.206a2.4,2.4,0,0,0-.089-.7l-.1-.2.217-.089c.051-.025.1-.038.166-.064l.038-.025.229-.076a.324.324,0,0,1,.089-.025,7.914,7.914,0,0,1,1.746-.2h.013c2.078,0,2.32,1.848,2.32,3.237-.013,2.7-1.351,3.276-2.46,3.276M602.632,0h-.089c-1.95,0-3.951.535-4.665,1.58a3.189,3.189,0,0,0-.612,1.9h0V8.54a1.5,1.5,0,0,1-.1.637l-.115.217h-6.156V5.876h-.013C590.8,2.167,588.611.127,585.438.127h-3.1c-.127.9-.229,1.542-.357,2.447h3.085c1.619,0,2.473,1.377,2.473,3.492V9.61l-.217-.115a2.339,2.339,0,0,0-.726-.1H581.27c-.1.676-.229,1.555-.37,2.434h16.378c.561-.115,1.211-.217,1.772-.306a9.225,9.225,0,0,0,3.429.625c3.556,0,5.863-2.383,5.863-6.054C608.329,2.46,606.1.076,602.632,0" transform="translate(-506.859)" fill="#27292d"/>
    <path id="Path_216" data-name="Path 216" d="M396.615,14.279h.153c3.556,0,5.213-1.173,5.213-4.066a3.723,3.723,0,0,0-4.066-3.735h-3.276a1.412,1.412,0,0,1-1.568-1.5c0-.637.242-1.428,1.848-1.428h7.163c.153-.93.229-1.517.37-2.447h-7.444c-3.467,0-5.213,1.453-5.213,3.875,0,2.4,1.517,3.645,4.066,3.645h3.276a1.547,1.547,0,0,1,1.568,1.593,1.6,1.6,0,0,1-1.835,1.644h-.548l-10.49-.025H383.92c-1.619,0-2.753-.918-2.753-3.046V7.32c0-2.218.879-3.594,2.753-3.594h3.11c.14-.943.229-1.542.357-2.434h-4.244c-3.174,0-5.366,2.129-5.443,5.838h0V8.786c.076,3.709,2.269,5.481,5.443,5.481h3.1l5.685.013h4.691Z" transform="translate(-329.559 -0.96)" fill="#27292d"/>
  </g>
</svg>
