<svg id="surface1" xmlns="http://www.w3.org/2000/svg" width="41.852" height="29.895" viewBox="0 0 41.852 29.895">
  <path id="Path_195" data-name="Path 195" d="M47.852,43.909a3.986,3.986,0,0,1-3.986,3.986H9.986A3.986,3.986,0,0,1,6,43.909V21.986A3.986,3.986,0,0,1,9.986,18h33.88a3.986,3.986,0,0,1,3.986,3.986Z" transform="translate(-6 -18)" fill="#3f51b5"/>
  <path id="Path_196" data-name="Path 196" d="M59.93,37.965A9.965,9.965,0,1,1,49.965,28,9.964,9.964,0,0,1,59.93,37.965Z" transform="translate(-23.06 -23.018)" fill="#ffc107"/>
  <path id="Path_197" data-name="Path 197" d="M28.961,43.944a9.961,9.961,0,0,1-1.172-1.993h5.305a9.917,9.917,0,0,0,.636-1.993H27.155a10.032,10.032,0,0,1-.2-1.993H33.93a10.032,10.032,0,0,0-.2-1.993H27.155a10.038,10.038,0,0,1,.635-1.993h5.305a9.869,9.869,0,0,0-1.172-1.993H28.961a10.2,10.2,0,0,1,1.475-1.59,9.966,9.966,0,1,0,1.487,13.548Z" transform="translate(-10.014 -23.018)" fill="#ff3d00"/>
</svg>
