<svg xmlns="http://www.w3.org/2000/svg" width="80.432" height="81.884" viewBox="0 0 80.432 81.884">
  <path id="Path_136" data-name="Path 136" d="M46.341,6a41.614,41.614,0,0,0-5.351.386A34.074,34.074,0,0,1,70.164,38.852a37.362,37.362,0,0,0-3.352-2.146s-8.53,4.265-8.53,9.383a6.23,6.23,0,0,0,1.533,4.3,3.4,3.4,0,0,0-3.239,3.379V60.59H53.165V46.942H46.341V60.59H42.929V57.178A3.4,3.4,0,0,0,39.691,53.8a6.23,6.23,0,0,0,1.533-4.3c0-5.118-8.53-9.383-8.53-9.383s-8.53,4.265-8.53,9.383A6.23,6.23,0,0,0,25.7,53.8a3.4,3.4,0,0,0-3.239,3.379V60.59H19.046V46.942H12.223V64.435a34.4,34.4,0,0,1-5.371-6.824A40.926,40.926,0,1,0,46.341,6ZM15.634,33.295a1.306,1.306,0,0,0-1.246.866l-2.166,5.771v2.459h6.824V39.932l-2.166-5.771A1.312,1.312,0,0,0,15.634,33.295Zm34.118,0a1.306,1.306,0,0,0-1.246.866l-2.166,5.771v2.459h6.824V39.932L51,34.161A1.312,1.312,0,0,0,49.753,33.295Z" transform="translate(-6.852 -6)" fill="#00897b"/>
</svg>
