<svg xmlns="http://www.w3.org/2000/svg" width="44" height="46" viewBox="0 0 44 46">
  <path id="Path_128" data-name="Path 128" d="M11,6a1.155,1.155,0,0,0-1.1.762L8,11.836V14h6V11.836L12.1,6.762A1.155,1.155,0,0,0,11,6ZM49,6a1.155,1.155,0,0,0-1.1.762L46,11.836V14h6V11.836L50.1,6.762A1.155,1.155,0,0,0,49,6ZM30,11S20,16,20,22a7.1,7.1,0,0,0,2.852,6H22a4,4,0,0,0-4,4V52h8V46c0-4.4,4-7.2,4-7.2s4,2.8,4,7.2v6h8V32a4,4,0,0,0-4-4h-.852A7.1,7.1,0,0,0,40,22C40,16,30,11,30,11ZM8,18V52h6V18Zm38,0V52h6V18Z" transform="translate(-8 -6)" fill="#fff"/>
</svg>
