<svg id="surface1" xmlns="http://www.w3.org/2000/svg" width="36.2" height="36.205" viewBox="0 0 36.2 36.205">
  <path id="Path_198" data-name="Path 198" d="M23.781,19.812l.006,0a.983.983,0,0,1,.96-.774H38.3a.406.406,0,0,1,.051-.006C38.059,14.227,34.027,12,30.469,12H16.922a.989.989,0,0,0-.96.782l-.006,0L10.033,39.971l.014,0a.815.815,0,0,0-.039.194,1,1,0,0,0,1.006,1H19.13Z" transform="translate(-10.008 -12)" fill="#1565c0"/>
  <path id="Path_199" data-name="Path 199" d="M46.085,25.988a10.716,10.716,0,0,1-.232,2.9c-1.287,6.028-5.944,9.165-11.7,9.165H29.815a.92.92,0,0,0-.884.544l-1.75,8.095-.308,1.438h-.006L25.6,53.957l.012,0a.9.9,0,0,0-.039.194,1,1,0,0,0,1.006,1.006h7.376l.014-.01a.99.99,0,0,0,.949-.794l.02-.014,1.821-8.464a.974.974,0,0,1,.976-.807h4.2c5.755,0,10.46-3.125,11.75-9.155C55.132,29.117,50.282,26.014,46.085,25.988Z" transform="translate(-17.745 -18.954)" fill="#039be5"/>
  <path id="Path_200" data-name="Path 200" d="M35.805,25.994a.981.981,0,0,0-.96.774l-.006,0L32.25,38.6a.927.927,0,0,1,.886-.542h4.259c5.755,0,10.491-3.139,11.78-9.167a10.7,10.7,0,0,0,.23-2.9.419.419,0,0,0-.049.006Z" transform="translate(-21.066 -18.954)" fill="#283593"/>
</svg>
