<svg xmlns="http://www.w3.org/2000/svg" width="31.449" height="31.451" viewBox="0 0 31.449 31.451">
  <path id="Path_141" data-name="Path 141" d="M31.552,26.358a1.754,1.754,0,0,0-1.789.011l-2.8,1.666a1.749,1.749,0,0,1-1.982-.12A45.221,45.221,0,0,1,21,24.446a45.221,45.221,0,0,1-3.469-3.982,1.749,1.749,0,0,1-.12-1.982l1.666-2.8a1.757,1.757,0,0,0,.008-1.795l-4.1-7.013a1.77,1.77,0,0,0-1.952-.825A5.826,5.826,0,0,0,10.31,7.685c-3.162,3.165-4.845,8.5,7.056,20.4S34.6,38.3,37.764,35.139A5.815,5.815,0,0,0,39.4,32.415a1.765,1.765,0,0,0-.82-1.944C36.888,29.483,33.243,27.349,31.552,26.358Z" transform="translate(-8 -5.999)" fill="#00897b"/>
</svg>
