<svg xmlns="http://www.w3.org/2000/svg" width="36.612" height="43.112" viewBox="0 0 36.612 43.112">
  <path id="Path_138" data-name="Path 138" d="M14.971,6.422l19,18.994,4.9-4.9C32.174,16.448,23.2,11,19.166,8.546l-2.7-1.638A3.4,3.4,0,0,0,14.971,6.422ZM12.071,8.7A3.416,3.416,0,0,0,12,9.34V46.877a3.156,3.156,0,0,0,.054.454L31.38,28ZM42.093,22.47,36.558,28,42,33.443c2.882-1.745,4.877-2.961,5.1-3.093a2.876,2.876,0,0,0,1.516-2.489A2.775,2.775,0,0,0,47.1,25.495C46.892,25.373,44.925,24.186,42.093,22.47Zm-8.124,8.124L15.029,49.534a3.1,3.1,0,0,0,1.087-.386c.486-.3,13.641-8.278,22.659-13.749Z" transform="translate(-12 -6.422)" fill="#044a48"/>
</svg>
