<svg xmlns="http://www.w3.org/2000/svg" width="40" height="48" viewBox="0 0 40 48">
  <path id="Path_176" data-name="Path 176" d="M29.973,4A6,6,0,0,0,24,10a8.442,8.442,0,0,0,1.785,4.715,1.83,1.83,0,0,1-1.762,2.812c-4.559-.562-9.172-1.437-9.172-1.437l0,0A3.862,3.862,0,0,0,14,16a4,4,0,0,0-4,4v9.652a2.311,2.311,0,0,0,3.543,1.965,7.627,7.627,0,0,1,5.023-1.59A6,6,0,0,1,18,42a8.008,8.008,0,0,1-4.422-1.6A2.314,2.314,0,0,0,10,42.34v4.793C10,50.219,11.789,52,14,52H46a4,4,0,0,0,4-4V20a4,4,0,0,0-4-4,3.825,3.825,0,0,0-.844.094l-.008,0s-4.613.875-9.172,1.438A1.832,1.832,0,0,1,34.223,14.7c1.016-1.547,1.953-3.137,1.75-5.293a6.015,6.015,0,0,0-4.555-5.25A6.185,6.185,0,0,0,29.973,4Z" transform="translate(-10 -4)" fill="#00897b"/>
</svg>
