<svg xmlns="http://www.w3.org/2000/svg" width="25.141" height="28.531" viewBox="0 0 25.141 28.531">
  <g id="surface1" opacity="0.7">
    <path id="Path_169" data-name="Path 169" d="M20.541,6a2.281,2.281,0,0,0-2.283,2.283v.3a9.124,9.124,0,0,0-6.848,8.831v2.733A13.589,13.589,0,0,1,10.343,25.4h20.4a13.58,13.58,0,0,1-1.068-5.256V17.413a9.124,9.124,0,0,0-6.848-8.831v-.3A2.281,2.281,0,0,0,20.541,6ZM9.129,27.684a1.141,1.141,0,1,0,0,2.283h8.189a3.422,3.422,0,1,0,6.647,1.141,3.378,3.378,0,0,0-.2-1.141h8.187a1.141,1.141,0,1,0,0-2.283Z" transform="translate(-7.971 -6)" fill="#fff"/>
  </g>
</svg>
