<svg id="surface1" xmlns="http://www.w3.org/2000/svg" width="23.088" height="15.742" viewBox="0 0 23.088 15.742">
  <path id="Path_92" data-name="Path 92" d="M2,9H25.088V24.742H2Z" transform="translate(-2 -9)" fill="#549d38"/>
  <path id="Path_93" data-name="Path 93" d="M20.778,17a.131.131,0,0,0-.055.021.407.407,0,0,0-.172.291c0,.076-.018.076.031.125s.072.047.146.008a.154.154,0,0,0,.07-.1c.016-.088-.092.041-.1-.055s.045-.127.111-.213C20.8,17.035,20.8,17,20.778,17Z" transform="translate(-10.814 -12.802)" fill="#fff"/>
  <path id="Path_94" data-name="Path 94" d="M21.6,17.012c-.02,0-.045.029-.08.09a.388.388,0,0,0-.053.371,1.107,1.107,0,0,1,.059.574.948.948,0,0,1-.111.156.179.179,0,0,1-.234.033.248.248,0,0,1-.141-.2,2.654,2.654,0,0,0-.021-.635.115.115,0,0,0-.193-.039,1.44,1.44,0,0,0-.348.715c-.055.174-.113.125-.152.053-.1-.09-.1-.81-.223-.693-.191.543.109,1.138.316,1.08.15.061.244-.223.305-.535.041-.086.074-.1.094-.051,0,.414.031.506.137.631a.347.347,0,0,0,.449.008c.014-.016.184-.184.184-.184a.111.111,0,0,1,.154-.008c.057.051.049.139.17.2.1.041.32.01.369-.078.068-.117.084-.156.115-.2.049-.064.131-.035.131-.016-.006.037-.055.072-.023.137.057.043.072.014.1.006.121-.059.211-.32.211-.32.006-.1-.049-.09-.084-.07s-.049.039-.1.066c-.059.01-.174.049-.23-.039-.057-.1-.057-.252-.1-.359,0-.008-.076-.166,0-.176.035.006.113.027.125-.037.037-.064-.082-.242-.162-.332A.176.176,0,0,0,22,17.155c-.066.059-.055.127-.07.193A.306.306,0,0,0,22,17.61a.8.8,0,0,1,.148.531.215.215,0,0,1-.193.1c-.051-.01-.133-.033-.178-.359a2.346,2.346,0,0,0-.1-.752C21.651,17.065,21.63,17.007,21.6,17.012Z" transform="translate(-10.574 -12.808)" fill="#fff"/>
  <path id="Path_95" data-name="Path 95" d="M22.235,17.062c-.031,0-.066.039-.094.111a1.668,1.668,0,0,0-.049.336c-.021.084.088.121.137.012a1.046,1.046,0,0,0,.078-.367C22.294,17.089,22.268,17.058,22.235,17.062Z" transform="translate(-11.548 -12.832)" fill="#fff"/>
  <path id="Path_96" data-name="Path 96" d="M24.662,17.1c-.033,0-.059.02-.07.07a.752.752,0,0,0,.012.266,1.008,1.008,0,0,0,.152.23c.215.287.42.578.621.877.031.221.053.441.068.656a12.87,12.87,0,0,1,.012,1.568c.09,0,.234-.144.283-.359a10.677,10.677,0,0,0-.014-1.084c0-.074-.008-.16-.012-.252.232.379.457.781.678,1.222.08-.039.062-.492.014-.555-.176-.381-.42-.756-.5-.9-.029-.053-.123-.2-.238-.365-.02-.24-.043-.443-.057-.5-.037-.252.1.029.084-.119a1.6,1.6,0,0,0-.35-.656c-.051-.074-.051-.09-.133.018a.484.484,0,0,0-.035.291,1.1,1.1,0,0,0-.086-.115c-.141-.123-.152-.129-.269-.228A.281.281,0,0,0,24.662,17.1Z" transform="translate(-12.734 -12.852)" fill="#fff"/>
  <path id="Path_97" data-name="Path 97" d="M30.383,17.176c-.016,0-.033.006-.053.035a.224.224,0,0,0-.076.166c.01.133.033.271.043.4a.411.411,0,0,0,.01.053.241.241,0,0,0-.035-.039c-.26-.273.119-.045-.049-.256a2.074,2.074,0,0,0-.307-.3c-.062-.039-.1-.115-.119.014a2.772,2.772,0,0,0-.008.34.457.457,0,0,0,.1.211c.172.213.35.441.529.676.037.484.047.926.084,1.408,0,.207-.068.482-.127.508a.141.141,0,0,1-.156-.006,1.972,1.972,0,0,1-.223-.3.136.136,0,0,0-.217,0,3.118,3.118,0,0,0-.383.724c-.031.049-.119.092-.217,0a1,1,0,0,1-.135-.7.773.773,0,0,0-.074.756.585.585,0,0,0,.275.314.2.2,0,0,0,.289-.031c.131-.135.131-.484.193-.551a.116.116,0,0,1,.2-.049.481.481,0,0,0,.187.16.312.312,0,0,0,.412.031.477.477,0,0,0,.219-.269,9.6,9.6,0,0,0,.018-1.513c.092.131.182.262.273.4a9.4,9.4,0,0,1,.045,1.238c-.008.08.277-.238.275-.387v-.359c.139.221.275.447.4.674.078-.041.051-.488,0-.549-.133-.223-.3-.463-.437-.65-.027-.236-.061-.514-.078-.6-.025-.131-.049-.332-.088-.488a1.922,1.922,0,0,1-.033-.279c.016-.043.074,0,.1-.049a1.785,1.785,0,0,0-.248-.689c-.035-.064-.1-.043-.178.061-.074.068-.047.225-.018.373.072.379.137.765.189,1.15-.094-.141-.211-.312-.326-.478,0-.014-.014-.074-.014-.074s-.014-.31-.029-.383c0-.029-.01-.037.021-.033a.189.189,0,0,0,.057.037c.033.006.061-.049.043-.1-.1-.189-.2-.377-.305-.564A.069.069,0,0,0,30.383,17.176Z" transform="translate(-14.787 -12.885)" fill="#fff"/>
  <path id="Path_98" data-name="Path 98" d="M13.582,17.2c-.055,0-.119.033-.094.1-.014.037.111.162.133.23.018.049-.021.207.021.221s.09-.109.109-.225c.012-.064,0-.279-.143-.324A.1.1,0,0,0,13.582,17.2Z" transform="translate(-7.457 -12.895)" fill="#fff"/>
  <path id="Path_99" data-name="Path 99" d="M33.668,17.2c-.012,0-.029.023-.053.074a.665.665,0,0,0-.053.412,22.446,22.446,0,0,1,.262,2.683.876.876,0,0,1-.051.219,1.858,1.858,0,0,1-.258.3c-.086.064-.266.123-.326.17-.187.109-.189.234-.037.238a.936.936,0,0,0,.785-.373,1.233,1.233,0,0,0,.127-.486,11.319,11.319,0,0,0-.141-2.372,1.049,1.049,0,0,1-.025-.223c.016-.043.1,0,.133-.045s-.221-.387-.316-.533C33.695,17.224,33.684,17.2,33.668,17.2Z" transform="translate(-16.754 -12.895)" fill="#fff"/>
  <path id="Path_100" data-name="Path 100" d="M28.875,17.223c-.01,0-.027.018-.055.057a1.269,1.269,0,0,0-.072.584,12.623,12.623,0,0,1,.351,2.808c.088,0,.191-.2.236-.408a3.484,3.484,0,0,0-.023-.611c-.008-.164-.186-1.494-.221-1.617-.045-.236.172-.031.15-.168-.076-.172-.262-.422-.322-.572C28.9,17.257,28.893,17.221,28.875,17.223Z" transform="translate(-14.707 -12.908)" fill="#fff"/>
  <path id="Path_101" data-name="Path 101" d="M15.911,17.261a.073.073,0,0,0-.055.053c0,.02.01.055-.008.066s-.053,0-.051-.053a.1.1,0,0,0-.021-.049.04.04,0,0,0-.029-.006c-.018,0-.016,0-.027.02a.16.16,0,0,0-.01.047.03.03,0,0,1-.025.031c-.016,0-.012,0-.027-.008s-.018-.012-.018-.027a.179.179,0,0,0-.008-.051.05.05,0,0,0-.031-.016c-.07,0-.076.08-.072.111,0,.006-.006.148.088.186.129.061.369.035.359-.17,0-.018,0-.08-.006-.1A.054.054,0,0,0,15.911,17.261Z" transform="translate(-8.43 -12.926)" fill="#fff"/>
  <path id="Path_102" data-name="Path 102" d="M18.842,17.261a.26.26,0,0,0-.117.033.222.222,0,0,0-.039.293c.066.029.131.094.088.131-.184.2-.662.525-.687.584l0,0v0a0,0,0,0,1,0,0h0v0h0a1.38,1.38,0,0,0,.357,0l0,0a5.008,5.008,0,0,0,.592-.6c-.027-.021-.049-.037-.074-.059s-.025-.047,0-.07a.194.194,0,0,0,.018-.3A.311.311,0,0,0,18.842,17.261Z" transform="translate(-9.645 -12.926)" fill="#fff"/>
  <path id="Path_103" data-name="Path 103" d="M27.358,17.266c-.012,0-.027.023-.051.072a.815.815,0,0,0-.092.414c.125.865.162,1.621.244,2.486a.329.329,0,0,1-.061.254,2.415,2.415,0,0,1-.824.6c-.035.039.086.2.242.2a.916.916,0,0,0,.707-.564.987.987,0,0,0,.16-.432,9.351,9.351,0,0,0-.176-2.2.369.369,0,0,1,.008-.154c.016-.02.076,0,.1-.049.045-.045-.119-.424-.213-.57C27.386,17.294,27.374,17.266,27.358,17.266Z" transform="translate(-13.676 -12.928)" fill="#fff"/>
  <path id="Path_104" data-name="Path 104" d="M13.961,17.316a.118.118,0,0,0-.088.074,2.382,2.382,0,0,0,.01.4,4.424,4.424,0,0,1,.113.652c.008.307-.176.133-.168-.018a1.414,1.414,0,0,0-.006-.59c-.031-.078-.066-.1-.139-.084-.059,0-.209.16-.252.433,0,0-.035.139-.051.264-.021.141-.113.24-.178-.018-.055-.191-.09-.656-.184-.545-.027.363-.059,1,.25,1.068.373.035.166-.631.3-.752.027-.062.074-.062.078.014v.566a.269.269,0,0,0,.211.277c.1-.006.162,0,.2.09.016.328.031.654.047.982,0,0,.225.066.238-.551a6.074,6.074,0,0,1-.025-.736c0-.07.09-.072.152-.039.1.07.141.154.293.121.232-.064.369-.176.373-.353a1.533,1.533,0,0,0-.107-.506c.01-.031-.043-.111-.033-.141.041.066.1.059.117,0a.5.5,0,0,0-.2-.307c-.082-.072-.2-.055-.244.094a.82.82,0,0,0,.187.545.516.516,0,0,1,.049.273.148.148,0,0,1-.191-.037s-.182-.137-.182-.168a.659.659,0,0,0-.016-.435.578.578,0,0,0-.123-.24.082.082,0,0,0-.137,0,.814.814,0,0,0,.016.578c.043.125.107.2.076.2-.025.07-.078.053-.115-.027a1.975,1.975,0,0,1-.066-.531c-.016-.139-.035-.439-.127-.514A.084.084,0,0,0,13.961,17.316Z" transform="translate(-7.228 -12.952)" fill="#fff"/>
  <path id="Path_105" data-name="Path 105" d="M15.753,17.32c-.016,0-.037.014-.061.018a.186.186,0,0,0-.131.228c.094.57.156,1,.25,1.574.014.068-.043.156-.115.148-.123-.084-.154-.252-.363-.244a.406.406,0,0,0-.346.324.818.818,0,0,0,0,.373.3.3,0,0,0,.346.086c.092-.037.168-.129.2-.107s0,.332-.433.562c-.264.119-.476.148-.59-.07-.07-.135.006-.65-.168-.531-.512,1.32,1.2,1.5,1.392.055.012-.041.051-.082.078-.074a.063.063,0,0,1,.025.051c-.039,1.314-1.324,1.4-1.541.99a1.208,1.208,0,0,1-.076-.443.228.228,0,0,0-.053-.144c-.051-.039-.123.064-.137.24a1.692,1.692,0,0,0-.014.32c.068,1.037,1.722.592,1.99-.267a2.9,2.9,0,0,0,.043-.818h0a0,0,0,0,1,0,0h0s0,0,0,0c.166.176.4.023.447-.039a.073.073,0,0,1,.113-.01.265.265,0,0,0,.4-.113,3.845,3.845,0,0,0,.055-.492.484.484,0,0,0-.178.074.049.049,0,0,0-.012.023c-.006.047-.014.094-.021.141,0,0,0,.006,0,.01a.055.055,0,0,1-.016.014.056.056,0,0,1-.084-.037c-.039-.18-.2-.2-.3.076-.068.055-.189.066-.2-.016.016-.187-.059-.213-.211-.123-.049-.373-.1-.728-.146-1.1.064,0,.121.043.178-.029a2.078,2.078,0,0,0-.269-.627h0l-.01-.01s0,0-.006,0,0,0,0,0-.006,0-.01,0Z" transform="translate(-7.71 -12.954)" fill="#fff"/>
  <path id="Path_106" data-name="Path 106" d="M26.965,17.328c-.066,0-.137.039-.111.121-.016.045.141.2.168.281.045.127-.035.248.012.266s.1-.131.127-.273a.422.422,0,0,0-.17-.394A.108.108,0,0,0,26.965,17.328Z" transform="translate(-13.81 -12.958)" fill="#fff"/>
  <path id="Path_107" data-name="Path 107" d="M19.448,17.593a.093.093,0,0,1,.084.063c.018.041.01.08-.02.088a.093.093,0,0,1-.09-.061c-.018-.041-.01-.082.023-.09Z" transform="translate(-10.275 -13.084)" fill="#fff"/>
  <path id="Path_108" data-name="Path 108" d="M33.463,17.957a.1.1,0,0,0-.1.133c-.014.047.129.213.152.3.02.064-.031.271.012.289s.094-.143.115-.3c.012-.082-.049-.373-.154-.426Z" transform="translate(-16.903 -13.257)" fill="#fff"/>
  <path id="Path_109" data-name="Path 109" d="M25.684,18.152a.649.649,0,0,1,.016.074c.01.053.023.107.033.16-.047-.066-.086-.117-.1-.135C25.524,18.124,25.633,18.167,25.684,18.152Z" transform="translate(-13.21 -13.35)" fill="#fff"/>
  <path id="Path_110" data-name="Path 110" d="M27.222,19.031a.073.073,0,0,0-.053.055c0,.021.01.055-.008.066s-.053,0-.051-.053a.09.09,0,0,0-.021-.049.04.04,0,0,0-.029-.006c-.018,0-.016,0-.027.021a.159.159,0,0,0-.01.047c0,.021-.01.027-.025.029s-.014,0-.027-.006-.018-.012-.018-.027a.179.179,0,0,0-.008-.051.074.074,0,0,0-.031-.016c-.07,0-.074.08-.07.111a.185.185,0,0,0,.086.189c.129.059.369.033.359-.172,0-.018-.006-.08-.006-.1A.057.057,0,0,0,27.222,19.031Z" transform="translate(-13.807 -13.767)" fill="#fff"/>
  <path id="Path_111" data-name="Path 111" d="M19.219,19.113a.1.1,0,0,0-.061.018.264.264,0,0,0-.086.348.17.17,0,0,0,.184.059c.111.014.176-.207.176-.207s0-.064-.127.055c-.057.01-.064-.01-.078-.041a.287.287,0,0,1,.018-.174C19.258,19.138,19.245,19.115,19.219,19.113Z" transform="translate(-10.097 -13.806)" fill="#fff"/>
  <path id="Path_112" data-name="Path 112" d="M30.538,19.168a.141.141,0,0,0-.146.123c0,.051.023.078.018.125-.008.027-.035.043-.1.012.008-.01-.043-.082-.043-.082-.049-.031-.117,0-.16.029a.249.249,0,0,0-.016.2c.074.133.322.361.439.363,0-.121.014-.281.021-.379,0-.039.012-.08.047-.09s.1.037.1,0a.519.519,0,0,0-.066-.244A.12.12,0,0,0,30.538,19.168Z" transform="translate(-15.346 -13.832)" fill="#fff"/>
  <path id="Path_113" data-name="Path 113" d="M19.382,19.965s0,0,0,0,0,0,0,0a.673.673,0,0,1-.059.053.285.285,0,0,0-.064.236c0,.012.107.3.193.5a1.546,1.546,0,0,1,.074.672,1.657,1.657,0,0,1-.678.709.353.353,0,0,1-.285,0,.18.18,0,0,1-.076-.162l0,0a1.6,1.6,0,0,0,.68-.705.714.714,0,0,0,.018-.506.473.473,0,0,0-.115-.236v0c.039-.018.137.055.154.01a.758.758,0,0,0-.195-.361.166.166,0,0,0-.24-.014c-.084.045-.1.209-.061.355.045.109.164.127.248.346,0,.014.029.164-.014.223a2.661,2.661,0,0,1-.51.48,0,0,0,0,1,0,0l0,0h0v0h0l0,0v0c0-.01,0-.031,0-.068,0-.066.025-.215.023-.24l0,0c-.148.094-.2.385-.223.471a7.024,7.024,0,0,0-1.039.709c-.125.2.875-.228.992-.279l0,0c.023.025.025.111.09.187a.531.531,0,0,0,.541.174,1.715,1.715,0,0,0,.779-.65c.031-.043.078-.078.123-.043a1.222,1.222,0,0,0,1.107.58c.125-.152.066-.228.014-.258-.014-.012-.269-.111-.31-.209-.025-.092.037-.172.158-.234a5.545,5.545,0,0,0,1.021-.195.917.917,0,0,1,.113-.351.138.138,0,0,1,.057-.061,0,0,0,0,1,0,0v0h0v0a.022.022,0,0,0,0-.01l-.055-.033-1.111,0a.1.1,0,0,1-.031-.016l0,0v0h0v0l0,0v-.01a0,0,0,0,1,0,0c0-.008.018-.014.035-.02.264-.037.736-.115.767-.568a.372.372,0,1,0-.73.016c-.01.061.02.18-.043.195-.408.037-.853.293-.869.476l0,0h0l0,0h-.006a.007.007,0,0,1,0,0A.1.1,0,0,1,19.768,21a2.205,2.205,0,0,0-.281-.951c-.057-.057-.082-.08-.1-.082h-.006Z" transform="translate(-9.216 -14.211)" fill="#fff"/>
  <path id="Path_114" data-name="Path 114" d="M23.057,20.284a.07.07,0,0,0-.053.053c-.006.021.01.055-.01.066s-.051,0-.049-.053a.108.108,0,0,0-.023-.049.042.042,0,0,0-.027-.006c-.018,0-.018.006-.029.021a.175.175,0,0,0-.01.047c0,.021-.008.029-.023.031s-.014,0-.027-.006-.018-.012-.018-.029a.177.177,0,0,0-.008-.049.043.043,0,0,0-.033-.016c-.07,0-.074.08-.07.109,0,.006-.008.15.088.189.127.061.432.025.357-.172,0-.018,0-.08-.006-.1A.055.055,0,0,0,23.057,20.284Z" transform="translate(-11.827 -14.363)" fill="#fff"/>
  <path id="Path_115" data-name="Path 115" d="M30.988,20.62a.009.009,0,0,0-.01,0s-.592.422-.607.437c-.059.053-.031.236,0,.215A2.407,2.407,0,0,0,31,20.835C31.025,20.837,31.037,20.628,30.988,20.62Z" transform="translate(-15.468 -14.522)" fill="#fff"/>
  <path id="Path_116" data-name="Path 116" d="M24.432,20.738a.164.164,0,0,1,.086.023.121.121,0,0,1,.07.094v0a.007.007,0,0,0,0,0l0,0v0l0,0-.006.006a.107.107,0,0,1-.117-.008.124.124,0,0,1-.068-.092s0,0,0,0,0-.006,0-.01,0,0,0,0h0a0,0,0,0,1,0,0A.072.072,0,0,1,24.432,20.738Z" transform="translate(-12.642 -14.579)" fill="#fff"/>
  <path id="Path_117" data-name="Path 117" d="M13.882,20.941a.99.99,0,0,0-.769.623c.324-.156.642-.305.972-.465C14.032,21.019,14.081,20.948,13.882,20.941Z" transform="translate(-7.282 -14.675)" fill="#fff"/>
  <path id="Path_118" data-name="Path 118" d="M16.37,21.206a.08.08,0,0,1,.078.057.1.1,0,0,1-.016.1v0c-.014.016-.059.008-.092.008a.08.08,0,0,1-.08-.039c-.012-.035.023-.07.037-.1h0s0-.006.006-.008a.092.092,0,0,1,.053-.023A.014.014,0,0,1,16.37,21.206Z" transform="translate(-8.776 -14.801)" fill="#fff"/>
  <path id="Path_119" data-name="Path 119" d="M31.279,21.437a.1.1,0,0,0-.082.141c-.016.049.074.217.1.307.021.064-.027.246.016.264s.146-.107.141-.269c.012-.082-.029-.389-.135-.441A.076.076,0,0,0,31.279,21.437Z" transform="translate(-15.874 -14.91)" fill="#fff"/>
  <path id="Path_120" data-name="Path 120" d="M18.814,21.6c-.049,0-.09.029-.072.1,0,.047.135.107.143.221.018.045-.031.195.01.209s.09-.1.111-.213c.01-.061-.047-.273-.148-.309A.113.113,0,0,0,18.814,21.6Z" transform="translate(-9.955 -14.987)" fill="#fff"/>
  <path id="Path_121" data-name="Path 121" d="M22.523,22.109h.012a3.5,3.5,0,0,0,.459.053c.127.008.191.107.072.15s-.232.072-.232.242a.251.251,0,0,1,0,.15,0,0,0,0,1,0,0v0h0v0h0l0,0-.006,0s0,0,0,0c-.029,0-.07-.023-.1-.039a.626.626,0,0,1-.305-.451A.114.114,0,0,1,22.523,22.109Z" transform="translate(-11.698 -15.231)" fill="#fff"/>
  <path id="Path_122" data-name="Path 122" d="M13.3,22.508c-.008,0-.025.023-.043.049a.954.954,0,0,0-.1.846.215.215,0,0,0,.205.068c.115-.049.164-.281.137-.365-.039-.059-.07-.068-.107-.018-.08.164-.113.053-.121-.039a1.957,1.957,0,0,1,.025-.455C13.3,22.53,13.3,22.508,13.3,22.508Z" transform="translate(-7.274 -15.42)" fill="#fff"/>
  <path id="Path_123" data-name="Path 123" d="M25.012,23.227a.107.107,0,0,0-.043.008.8.8,0,0,0-.17.146c-.025.021-.023.037-.014.07s.053.031.092.008c.051-.006.076.027.072.09a.121.121,0,0,0,.01.111.087.087,0,0,0,.109.012,1.982,1.982,0,0,1,.371-.129c.045,0,.043-.123-.029-.127a.435.435,0,0,0-.273.084c-.057.012-.066-.023-.08-.053-.014-.078.033-.133.025-.191A.138.138,0,0,0,25.012,23.227Z" transform="translate(-12.826 -15.762)" fill="#fff"/>
  <path id="Path_124" data-name="Path 124" d="M32.576,23.508c-.023,0-.045,0-.08.006s-.051.025-.059.072c0,.068.045.066.09.092a.077.077,0,0,1,0,.115c-.041.037-.072.057-.113.094-.018.035-.031.084.029.1.109.031.363-.133.363-.137a.082.082,0,0,0,.025-.088c-.025-.029-.078-.012-.115-.016-.016,0-.074-.008-.047-.057a.338.338,0,0,0,.045-.09c.018-.037,0-.061-.059-.084A.561.561,0,0,0,32.576,23.508Z" transform="translate(-16.447 -15.895)" fill="#fff"/>
  <path id="Path_125" data-name="Path 125" d="M23.878,29.553a0,0,0,0,1,0,0,.172.172,0,0,0-.059.318c-1.927,0-4.882-.031-5.518-.031-.355,0-1.476-.043-1.5-.043a1.135,1.135,0,0,0,1.045.43c.857,0,4.821-.01,5.95-.01a.4.4,0,0,0,.07.414l.006,0,.006,0h0c.074.018.107-.035.133-.076a8.111,8.111,0,0,0,.865,0v0c.043.061.084.121.166.111.139-.029.25-.045.254-.33,0,0-.014-.488-.334-.457-.074.012-.287.033-.287.033-.246-.029-.424-.033-.7-.043.027-.033.07-.162.016-.211a.09.09,0,0,0-.066-.016h0s0,0,0,0a0,0,0,0,1,0,0l0,0a.869.869,0,0,1-.031-.082l0,0,0,0h0Z" transform="translate(-9.034 -18.767)" fill="#fff"/>
  <path id="Path_126" data-name="Path 126" d="M29.816,31.191h0c.281.014.545,0,.826.016a.1.1,0,0,1-.008.141.007.007,0,0,1,0,0h-.006l-.236-.006c0-.006,0-.01,0-.014-.023-.064-.178-.059-.217-.01,0,0,0,0,0,0a0,0,0,0,1,0,0,.008.008,0,0,1,0,.006v.006s0,.006,0,.008a2.307,2.307,0,0,1-.357-.008C29.768,31.294,29.773,31.212,29.816,31.191Z" transform="translate(-15.203 -19.547)" fill="#fff"/>
</svg>
