<svg id="surface1" xmlns="http://www.w3.org/2000/svg" width="40.529" height="44.213" viewBox="0 0 40.529 44.213">
  <path id="Path_150" data-name="Path 150" d="M28.264,6a94.368,94.368,0,0,0-17.3,1.911l-.007.007A3.687,3.687,0,0,0,8,11.527V22.58C8,41.736,26.462,49.742,26.462,49.742a3.683,3.683,0,0,0,1.8.471,3.646,3.646,0,0,0,1.8-.471h.007S48.529,41.736,48.529,22.58V11.527A3.684,3.684,0,0,0,45.56,7.911,94.368,94.368,0,0,0,28.264,6ZM39.318,17.053a1.842,1.842,0,0,1,1.3,3.145L26.692,34.126a1.842,1.842,0,0,1-2.605,0l-6.361-6.361a1.842,1.842,0,0,1,2.6-2.6l5.059,5.059L38.015,17.593A1.837,1.837,0,0,1,39.318,17.053Z" transform="translate(-8 -6)" fill="#00897b"/>
</svg>
