<svg id="surface1" xmlns="http://www.w3.org/2000/svg" width="47.381" height="47.381" viewBox="0 0 47.381 47.381">
  <path id="Path_145" data-name="Path 145" d="M36.4,2a.91.91,0,0,0-.908.812l-.075.69a1.826,1.826,0,0,1-1.406,1.573c-.189.046-.377.093-.562.146a1.824,1.824,0,0,1-1.99-.662L31.05,4a.911.911,0,0,0-1.189-.249l-.7.4a.912.912,0,0,0-.381,1.153l.285.644a1.827,1.827,0,0,1-.427,2.057q-.208.2-.406.406a1.827,1.827,0,0,1-2.061.427l-.644-.281a.91.91,0,0,0-1.153.377l-.4.7a.916.916,0,0,0,.249,1.192l.555.409a1.825,1.825,0,0,1,.662,1.99c-.053.185-.1.37-.146.559a1.826,1.826,0,0,1-1.573,1.406l-.69.078a.907.907,0,0,0-.808.9v.8a.91.91,0,0,0,.811.908l.69.075a1.822,1.822,0,0,1,1.57,1.406c.046.189.1.377.15.562a1.825,1.825,0,0,1-.662,1.99l-.559.409a.911.911,0,0,0-.249,1.189l.4.7a.916.916,0,0,0,1.157.381l.644-.285a1.828,1.828,0,0,1,2.057.427q.2.208.406.406a1.827,1.827,0,0,1,.427,2.061l-.285.644A.913.913,0,0,0,29.164,29l.7.4a.911.911,0,0,0,1.189-.249l.409-.555a1.824,1.824,0,0,1,1.99-.662c.185.053.374.1.562.146a1.826,1.826,0,0,1,1.406,1.573l.075.69a.91.91,0,0,0,.908.808h.8a.91.91,0,0,0,.908-.811l.075-.69a1.822,1.822,0,0,1,1.406-1.57c.189-.046.377-.1.562-.15a1.825,1.825,0,0,1,1.99.662l.409.559a.911.911,0,0,0,1.189.249l.7-.4a.916.916,0,0,0,.381-1.157l-.285-.644a1.828,1.828,0,0,1,.427-2.057q.208-.2.406-.406a1.822,1.822,0,0,1,2.057-.427l.644.281a.916.916,0,0,0,1.157-.377l.4-.7a.916.916,0,0,0-.249-1.192l-.559-.409a1.825,1.825,0,0,1-.662-1.99c.053-.185.1-.37.15-.559a1.822,1.822,0,0,1,1.57-1.406l.694-.078a.907.907,0,0,0,.808-.9v-.8a.91.91,0,0,0-.811-.908l-.69-.075a1.826,1.826,0,0,1-1.573-1.406c-.046-.189-.093-.377-.146-.562a1.825,1.825,0,0,1,.662-1.99l.555-.409a.911.911,0,0,0,.249-1.189l-.4-.7a.911.911,0,0,0-1.153-.381l-.644.285a1.833,1.833,0,0,1-2.061-.427q-.2-.208-.406-.406a1.821,1.821,0,0,1-.427-2.057l.285-.644a.917.917,0,0,0-.381-1.157l-.7-.4A.911.911,0,0,0,42.55,4l-.409.559a1.824,1.824,0,0,1-1.99.662c-.185-.053-.374-.1-.562-.149A1.822,1.822,0,0,1,38.183,3.5l-.075-.69A.9.9,0,0,0,37.2,2Zm.4,7.289a7.289,7.289,0,1,1-7.289,7.289A7.29,7.29,0,0,1,36.8,9.289Zm0,3.645a3.645,3.645,0,1,0,3.645,3.645A3.643,3.643,0,0,0,36.8,12.934ZM14.934,27.513a5.468,5.468,0,0,0-2.036.4L4,31.157V45.736l7.692-3.342a3.668,3.668,0,0,1,2.851-.032L31.061,49.11h.007a2.7,2.7,0,0,0,2.524-.089H33.6l16.376-9.1,0,0a2.729,2.729,0,0,0-2.488-4.855v0L34.98,40.269H32.246a2.733,2.733,0,0,0,.847-5.332v0L17.251,28.025H17.23A5.5,5.5,0,0,0,14.934,27.513Z" transform="translate(-4 -2)" fill="#00897b"/>
</svg>
