<svg xmlns="http://www.w3.org/2000/svg" width="29.672" height="29.673" viewBox="0 0 29.672 29.673">
  <g id="surface1" opacity="0.7">
    <path id="Path_168" data-name="Path 168" d="M18.836,4A1.141,1.141,0,0,0,17.7,5.141v.2a1.123,1.123,0,0,1-.923,1.119c-.261.042-.519.091-.776.149a1.122,1.122,0,0,1-1.273-.68l-.076-.178a1.141,1.141,0,0,0-2.109.874l.076.183a1.12,1.12,0,0,1-.421,1.384c-.223.138-.441.285-.655.437a1.122,1.122,0,0,1-1.44-.14L9.96,8.347A1.141,1.141,0,0,0,8.347,9.96l.138.138a1.122,1.122,0,0,1,.14,1.44c-.152.214-.3.432-.437.655a1.123,1.123,0,0,1-1.386.424l-.181-.076a1.142,1.142,0,1,0-.876,2.109l.178.074A1.123,1.123,0,0,1,6.606,16c-.058.256-.109.515-.152.776a1.121,1.121,0,0,1-1.117.923h-.2a1.141,1.141,0,0,0,0,2.283h.2a1.123,1.123,0,0,1,1.119.923c.042.261.091.519.149.776a1.122,1.122,0,0,1-.68,1.273l-.178.076a1.141,1.141,0,0,0,.874,2.109l.183-.076a1.126,1.126,0,0,1,1.386.421c.138.223.283.444.437.658a1.122,1.122,0,0,1-.14,1.44l-.14.138A1.141,1.141,0,1,0,9.96,29.328l.14-.138a1.12,1.12,0,0,1,1.438-.143c.214.154.435.3.658.439a1.126,1.126,0,0,1,.424,1.386l-.076.181a1.142,1.142,0,1,0,2.109.876l.074-.178A1.123,1.123,0,0,1,16,31.069c.256.058.515.109.776.152a1.117,1.117,0,0,1,.921,1.115v.2a1.141,1.141,0,1,0,2.283,0v-.2a1.123,1.123,0,0,1,.923-1.119c.261-.042.519-.091.776-.149a1.122,1.122,0,0,1,1.273.68l.076.178a1.141,1.141,0,0,0,2.109-.874l-.076-.183a1.126,1.126,0,0,1,.421-1.386c.223-.138.444-.283.658-.437a1.122,1.122,0,0,1,1.44.14l.138.14a1.141,1.141,0,1,0,1.614-1.614l-.138-.14a1.12,1.12,0,0,1-.143-1.438c.154-.214.3-.435.439-.658a1.126,1.126,0,0,1,1.386-.424l.181.076a1.142,1.142,0,1,0,.876-2.109l-.178-.074a1.123,1.123,0,0,1-.682-1.273c.058-.256.109-.515.152-.776a1.117,1.117,0,0,1,1.115-.921h.2a1.141,1.141,0,1,0,0-2.283h-.2a1.123,1.123,0,0,1-1.119-.923c-.042-.261-.091-.519-.149-.776a1.122,1.122,0,0,1,.68-1.273l.178-.076a1.141,1.141,0,0,0-.874-2.109l-.183.076a1.126,1.126,0,0,1-1.386-.421c-.138-.223-.283-.444-.437-.658a1.122,1.122,0,0,1,.14-1.44l.14-.138a1.141,1.141,0,0,0-1.614-1.614l-.138.14a1.123,1.123,0,0,1-1.44.143c-.214-.154-.435-.3-.658-.439A1.125,1.125,0,0,1,25.055,6.8l.076-.181a1.142,1.142,0,1,0-2.109-.876l-.076.178a1.123,1.123,0,0,1-1.273.682c-.256-.058-.515-.109-.776-.152a1.119,1.119,0,0,1-.921-1.117v-.2A1.141,1.141,0,0,0,18.836,4Zm0,5.706A9.127,9.127,0,0,1,27.888,17.7H20.809a2.287,2.287,0,0,0-1.973-1.141h0l-3.54-6.134A9.094,9.094,0,0,1,18.836,9.706ZM13.324,11.57,16.861,17.7a2.263,2.263,0,0,0,0,2.278L13.322,26.1a9.106,9.106,0,0,1,0-14.531Zm7.487,8.408h7.077a9.128,9.128,0,0,1-12.594,7.276l3.54-6.134h0A2.278,2.278,0,0,0,20.811,19.978Z" transform="translate(-4 -4)" fill="#fff"/>
  </g>
</svg>
