<svg xmlns="http://www.w3.org/2000/svg" width="37.965" height="36.504" viewBox="0 0 37.965 36.504">
  <path id="Path_205" data-name="Path 205" d="M20.062,6C11.192,6,4,12.536,4,20.6A13.928,13.928,0,0,0,8.959,31.122a8.107,8.107,0,0,1-3.026,4.127l0,0a.73.73,0,0,0,.26,1.412.659.659,0,0,0,.148-.017,11.644,11.644,0,0,0,7.172-2.735,17.237,17.237,0,0,0,2.858.89,11.877,11.877,0,0,1-.687-3.978c0-7.247,6.551-13.141,14.6-13.141a15.9,15.9,0,0,1,5.692,1.041C34.96,11.547,28.229,6,20.062,6ZM30.283,20.6C23.832,20.6,18.6,25.179,18.6,30.823s5.23,10.221,11.681,10.221a13.151,13.151,0,0,0,4.358-.744,11.272,11.272,0,0,0,6.44,2.187.709.709,0,0,0,.154.017.729.729,0,0,0,.251-1.415,8.5,8.5,0,0,1-2.706-3.268,9.577,9.577,0,0,0,3.186-7C41.964,25.179,36.734,20.6,30.283,20.6Z" transform="translate(-4 -6)" fill="#fff"/>
</svg>
