<svg id="surface1" xmlns="http://www.w3.org/2000/svg" width="40.529" height="40.529" viewBox="0 0 40.529 40.529">
  <path id="Path_153" data-name="Path 153" d="M11.684,8A3.71,3.71,0,0,0,8,11.684V31.949a3.71,3.71,0,0,0,3.684,3.684H20.9v9.211a3.682,3.682,0,0,0,3.684,3.684H44.844a3.682,3.682,0,0,0,3.684-3.684V24.58A3.682,3.682,0,0,0,44.844,20.9H35.633V11.684A3.71,3.71,0,0,0,31.949,8Zm0,3.684H31.949V22.738l-9.211,9.211H11.684ZM20.9,14.448v2.763H15.369v1.842H24.58c0,2.853-.8,4.566-2.285,5.692a6.521,6.521,0,0,1-1.418.788,8.072,8.072,0,0,1-1.623-1.022A5.2,5.2,0,0,1,17.211,20.9H15.369a6.826,6.826,0,0,0,2.7,5.026c.108.09.241.166.356.252a19.056,19.056,0,0,1-3.055.248v1.842a17.57,17.57,0,0,0,5.448-.727,10.219,10.219,0,0,0,3.764.727V26.422a8.161,8.161,0,0,1-1.306-.122c.043-.032.094-.058.137-.09,1.972-1.5,3.012-3.929,3.012-7.157h1.842V17.211H22.738V14.448ZM32.69,28.221h4.037L41.091,41.2h-3.6l-.81-2.853H32.445L31.611,41.2H28.336ZM34.5,31.146l-1.421,4.829h2.986l-1.392-4.829Z" transform="translate(-8 -8)" fill="#00897b"/>
</svg>
