<svg id="surface1" xmlns="http://www.w3.org/2000/svg" width="43.736" height="43.736" viewBox="0 0 43.736 43.736">
  <path id="Path_147" data-name="Path 147" d="M27.868,6A21.868,21.868,0,1,0,49.736,27.868,21.869,21.869,0,0,0,27.868,6ZM41.162,18.091a1.821,1.821,0,1,1-.669,2.488A1.818,1.818,0,0,1,41.162,18.091ZM27.868,9.645a1.822,1.822,0,1,1-1.822,1.822A1.821,1.821,0,0,1,27.868,9.645Zm-9.112,2.442a1.823,1.823,0,1,1-.666,2.488A1.824,1.824,0,0,1,18.756,12.086ZM9.645,27.868a1.822,1.822,0,1,1,1.822,1.822A1.821,1.821,0,0,1,9.645,27.868Zm4.93,9.777a1.821,1.821,0,1,1,.669-2.488A1.818,1.818,0,0,1,14.574,37.645Zm.669-17.067a1.823,1.823,0,1,1-.669-2.488A1.822,1.822,0,0,1,15.243,20.579Zm6,22.405a1.821,1.821,0,1,1-.666-2.491A1.821,1.821,0,0,1,21.244,42.984Zm6.624,3.107a1.822,1.822,0,1,1,1.822-1.822A1.821,1.821,0,0,1,27.868,46.091Zm4.179-18.757L29.69,24.978V35.157a1.822,1.822,0,0,1-3.645,0V24.978L23.69,27.334a1.822,1.822,0,1,1-2.577-2.577L26.58,19.29a1.822,1.822,0,0,1,2.577,0l5.467,5.467a1.822,1.822,0,1,1-2.577,2.577ZM36.98,43.65a1.823,1.823,0,1,1,.666-2.488A1.824,1.824,0,0,1,36.98,43.65Zm.666-29.076a1.821,1.821,0,1,1-.666-2.488A1.822,1.822,0,0,1,37.645,14.574Zm6,22.405a1.823,1.823,0,1,1-.666-2.488A1.818,1.818,0,0,1,43.65,36.98Zm.619-7.289a1.822,1.822,0,1,1,1.822-1.822A1.821,1.821,0,0,1,44.269,29.69Z" transform="translate(-6 -6)" fill="#00897b"/>
</svg>
