<svg id="surface1" xmlns="http://www.w3.org/2000/svg" width="23.09" height="14.168" viewBox="0 0 23.09 14.168">
  <path id="Path_67" data-name="Path 67" d="M2,10H25.084V24.168H2Z" transform="translate(-1.996 -10)" fill="#eceff1"/>
  <path id="Path_68" data-name="Path 68" d="M2,10H25.088v1.574H2Z" transform="translate(-1.998 -10)" fill="#f44336"/>
  <path id="Path_69" data-name="Path 69" d="M2,16H25.088v1.574H2Z" transform="translate(-1.998 -12.852)" fill="#f44336"/>
  <path id="Path_70" data-name="Path 70" d="M2,22H25.088v1.574H2Z" transform="translate(-1.998 -15.703)" fill="#f44336"/>
  <path id="Path_71" data-name="Path 71" d="M2,28H25.088v1.574H2Z" transform="translate(-1.998 -18.555)" fill="#f44336"/>
  <path id="Path_72" data-name="Path 72" d="M2,34H25.088v1.574H2Z" transform="translate(-1.998 -21.407)" fill="#f44336"/>
  <path id="Path_73" data-name="Path 73" d="M2,10H13.019v7.871H2Z" transform="translate(-1.998 -10)" fill="#3f51b5"/>
  <path id="Path_74" data-name="Path 74" d="M3.537,12l.244.519.543.082-.394.4.094.57-.488-.269-.488.269L3.144,13l-.394-.4.543-.082Z" transform="translate(-2.354 -10.951)" fill="#fff"/>
  <path id="Path_75" data-name="Path 75" d="M7.537,12l.244.519.543.082-.394.4.094.57-.488-.269-.488.269L7.144,13l-.394-.4.543-.082Z" transform="translate(-4.255 -10.951)" fill="#fff"/>
  <path id="Path_76" data-name="Path 76" d="M11.537,12l.244.519.543.082-.394.4.094.57-.488-.269-.488.269.094-.57-.394-.4.543-.082Z" transform="translate(-6.157 -10.951)" fill="#fff"/>
  <path id="Path_77" data-name="Path 77" d="M15.537,12l.244.519.543.082-.394.4.094.57-.488-.269-.488.269.094-.57-.394-.4.543-.082Z" transform="translate(-8.058 -10.951)" fill="#fff"/>
  <path id="Path_78" data-name="Path 78" d="M19.287,12l.244.519.543.082-.394.4.094.57-.488-.269-.488.269.094-.57-.394-.4.543-.082Z" transform="translate(-9.84 -10.951)" fill="#fff"/>
  <path id="Path_79" data-name="Path 79" d="M3.537,20l.244.519.543.082-.394.4.094.57-.488-.269-.488.269L3.144,21l-.394-.4.543-.082Z" transform="translate(-2.354 -14.753)" fill="#fff"/>
  <path id="Path_80" data-name="Path 80" d="M7.537,20l.244.519.543.082-.394.4.094.57-.488-.269-.488.269L7.144,21l-.394-.4.543-.082Z" transform="translate(-4.255 -14.753)" fill="#fff"/>
  <path id="Path_81" data-name="Path 81" d="M11.537,20l.244.519.543.082-.394.4.094.57-.488-.269-.488.269.094-.57-.394-.4.543-.082Z" transform="translate(-6.157 -14.753)" fill="#fff"/>
  <path id="Path_82" data-name="Path 82" d="M15.537,20l.244.519.543.082-.394.4.094.57-.488-.269-.488.269.094-.57-.394-.4.543-.082Z" transform="translate(-8.058 -14.753)" fill="#fff"/>
  <path id="Path_83" data-name="Path 83" d="M19.287,20l.244.519.543.082-.394.4.094.57-.488-.269-.488.269.094-.57-.394-.4.543-.082Z" transform="translate(-9.84 -14.753)" fill="#fff"/>
  <path id="Path_84" data-name="Path 84" d="M4.537,16l.244.519.543.082-.394.4.094.57-.488-.269-.488.269L4.144,17l-.394-.4.543-.082Z" transform="translate(-2.83 -12.852)" fill="#fff"/>
  <path id="Path_85" data-name="Path 85" d="M8.537,16l.244.519.543.082-.394.4.094.57-.488-.269-.488.269L8.144,17l-.394-.4.543-.082Z" transform="translate(-4.731 -12.852)" fill="#fff"/>
  <path id="Path_86" data-name="Path 86" d="M12.537,16l.244.519.543.082-.394.4.094.57-.488-.269-.488.269.094-.57-.394-.4.543-.082Z" transform="translate(-6.632 -12.852)" fill="#fff"/>
  <path id="Path_87" data-name="Path 87" d="M16.537,16l.244.519.543.082-.394.4.094.57-.488-.269-.488.269.094-.57-.394-.4.543-.082Z" transform="translate(-8.533 -12.852)" fill="#fff"/>
  <path id="Path_88" data-name="Path 88" d="M20.287,16l.244.519.543.082-.394.4.094.57-.488-.269-.488.269.094-.57-.394-.4.543-.082Z" transform="translate(-10.315 -12.852)" fill="#fff"/>
</svg>
