<svg xmlns="http://www.w3.org/2000/svg" width="34.249" height="27.399" viewBox="0 0 34.249 27.399">
  <path id="Path_208" data-name="Path 208" d="M10.846,6C6.863,6,4.567,9.106,4.567,12.85a6.823,6.823,0,0,0,.6,2.529,1.333,1.333,0,0,0-.54,1.367c.187,1.465.823,1.835,1.226,1.866a5.966,5.966,0,0,0,2.136,3.371v2.283C6.85,27.691,0,25.408,0,33.4H10.275c0-4.767,2.127-6.863,4.205-8a2.516,2.516,0,0,1-.78-1.133V21.983a6.239,6.239,0,0,0,1.98-2.734,5.333,5.333,0,0,1-.758-2.216,3.835,3.835,0,0,1,.254-2,8.082,8.082,0,0,1-.334-2.181,10.141,10.141,0,0,1,.912-4.29A2.8,2.8,0,0,0,13.7,7.712S13.274,6,10.846,6ZM23.4,6c-3.982,0-6.279,3.1-6.279,6.848a6.823,6.823,0,0,0,.6,2.529,1.333,1.333,0,0,0-.54,1.367c.187,1.465.823,1.835,1.226,1.866a5.966,5.966,0,0,0,2.136,3.371v2.283c-1.142,3.425-7.991,1.142-7.991,9.133H34.249c0-7.991-6.85-5.708-7.991-9.133V21.983a5.96,5.96,0,0,0,2.136-3.369c.4-.031,1.039-.4,1.226-1.869a1.331,1.331,0,0,0-.54-1.367,6.038,6.038,0,0,0,.6-2.526c0-2.772-1.088-5.137-3.425-5.137C26.258,7.715,25.832,6,23.4,6Z" transform="translate(0 -6)" fill="#9e9e9e"/>
</svg>
