<svg id="surface1" xmlns="http://www.w3.org/2000/svg" width="41.852" height="29.895" viewBox="0 0 41.852 29.895">
  <path id="Path_189" data-name="Path 189" d="M47.852,43.909a3.986,3.986,0,0,1-3.986,3.986H9.986A3.986,3.986,0,0,1,6,43.909V21.986A3.986,3.986,0,0,1,9.986,18h33.88a3.986,3.986,0,0,1,3.986,3.986Z" transform="translate(-6 -18)" fill="#1565c0"/>
  <path id="Path_190" data-name="Path 190" d="M23.288,38l-2.616,7.8s-.666-3.3-.732-3.715c-1.489-3.4-3.686-3.209-3.686-3.209l2.59,10.082v0h3.149L26.349,38Z" transform="translate(-11.145 -28.035)" fill="#fff"/>
  <path id="Path_191" data-name="Path 191" d="M35.379,48.961H38.24L39.97,38h-2.9Z" transform="translate(-20.741 -28.035)" fill="#fff"/>
  <path id="Path_192" data-name="Path 192" d="M68.258,38H65.247L60.555,48.961H63.4l.586-1.565h3.583l.306,1.565h2.6Zm-3.482,7.3,1.557-4.142.816,4.142Z" transform="translate(-33.373 -28.035)" fill="#fff"/>
  <path id="Path_193" data-name="Path 193" d="M48.677,41.192c0-.6.5-1.053,1.919-1.053a4.512,4.512,0,0,1,1.983.671l.465-2.3A8.721,8.721,0,0,0,50.363,38c-3.007,0-4.56,1.44-4.56,3.262,0,3.293,3.966,2.842,3.966,4.535,0,.29-.232.96-1.882.96a6.143,6.143,0,0,1-2.75-.605l-.492,2.207a6.725,6.725,0,0,0,3.106.6c2.051,0,4.9-1.534,4.9-3.739C52.648,42.568,48.677,42.377,48.677,41.192Z" transform="translate(-25.39 -28.033)" fill="#fff"/>
  <path id="Path_194" data-name="Path 194" d="M17.421,44.093l-.963-4.731a1.768,1.768,0,0,0-1.567-1.026H10.465S16.107,40,17.421,44.093Z" transform="translate(-8.24 -28.204)" fill="#ffc107"/>
</svg>
